<svg xmlns="http://www.w3.org/2000/svg" width="512" height="512" viewBox="0 0 512 512"><path fill="#fe4d01" d="M0 171.247c0-59.942 0-89.913 11.666-112.808a107.03 107.03 0 0 1 46.773-46.773C81.334 0 111.305 0 171.247 0h169.506c59.942 0 89.913 0 112.808 11.666a107.03 107.03 0 0 1 46.774 46.773C512 81.334 512 111.305 512 171.247v169.507c0 59.942 0 89.913-11.665 112.808a107.03 107.03 0 0 1-46.774 46.773c-22.895 11.666-52.866 11.666-112.808 11.666H171.247c-59.942 0-89.913 0-112.808-11.666a107.03 107.03 0 0 1-46.773-46.773C0 430.667 0 400.696 0 340.754z"/><path fill="#fff" d="M183.218 185.473c-3.076-5.203-8.816-8.615-15.658-8.615-8.208 0-15.704 4.939-19.309 11.911a20.2 20.2 0 0 0-2.25 7.592l-2.112 23.926s8.162.172 11.824.172c29.892 0 29.939-24.098 29.939-24.098a17.23 17.23 0 0 0-2.434-10.888m45.495 50.562a18.2 18.2 0 0 0-8.024-1.792H104.228a20.43 20.43 0 0 0-11.342 3.319 21.61 21.61 0 0 0-10.205 16.173c-.7 8.12 3.65 15.058 10.504 18.01 2.273.976 4.81 1.55 7.576 1.55h38.445l-3.363 37.823c-.23 2.745.045 5.261.861 7.627 2.399 7.006 9 11.934 17.196 11.934 8.001 0 15.302-4.755 19.022-11.486 1.377-2.458 2.284-5.123 2.525-8.075l3.364-37.823h38.434c2.778 0 5.373-.574 7.841-1.528 7.358-2.975 12.972-9.912 13.707-18.033a17.537 17.537 0 0 0-10.08-17.699m164.123 13.578c16.198-9.43 25.347-25.189 27.298-46.967 1.664-19.067-4.098-33.885-17.22-44.038-12.822-9.924-28.756-14.943-47.352-14.943h-61.324c-.138 0-.275.023-.402.034a22.16 22.16 0 0 0-11.686 3.481 23.8 23.8 0 0 0-5.636 4.927 21.3 21.3 0 0 0-5.396 12.279L254.76 348.644c-.448 5.008.907 9.384 3.834 13.129 1.183 1.562 2.514 2.963 4.133 4.1 3.134 2.229 6.853 3.377 11.055 3.469.149 0 .252.057.425.057h72.883c20.709 0 39.146-5.226 54.793-15.563 16.059-10.579 25.105-26.291 26.919-46.634 1.378-15.276-1.607-28.348-8.839-38.753-6.004-8.684-15.107-15.046-27.127-18.836m-83.431-69.997H346.3c9.666 0 17.518 2.481 23.257 7.351 5.625 4.743 8.002 11.359 7.232 20.204-.964 10.452-4.545 18.044-10.699 22.604-6.509 4.836-14.028 7.179-22.959 7.179h-38.823zm63.788 146.297c-7.966 4.997-18.16 7.489-30.283 7.489h-47.146l5.085-57.521h48.788c13.006 0 22.902.838 28.699 5.949 6.084 5.376 8.403 11.911 7.622 20.87-.976 10.901-5.154 18.527-12.765 23.213"/></svg>
