<svg width="598" height="598" viewBox="0 0 598 598" fill="none" xmlns="http://www.w3.org/2000/svg">
<path d="M505.045 280.418L418.391 130.582C411.74 119.084 399.424 112 386.122 112H212.814C199.512 112 187.196 119.084 180.545 130.582L93.9232 280.418C87.2722 291.916 87.2722 306.084 93.9232 317.614L180.577 467.418C187.228 478.916 199.544 486 212.846 486H386.154C399.456 486 411.772 478.916 418.423 467.418L505.077 317.614C511.728 306.115 511.728 291.948 505.077 280.418H505.045ZM221.597 210.535C221.597 196.844 232.703 185.79 246.419 185.79H349.208C362.923 185.79 374.029 196.876 374.029 210.535V214.601C374.029 228.291 362.923 239.377 349.208 239.377H246.419C232.703 239.377 221.597 228.291 221.597 214.601V210.535ZM347.585 387.465C347.585 401.156 336.478 412.242 322.763 412.242H272.8C259.085 412.242 247.978 401.156 247.978 387.465V383.399C247.978 369.709 259.085 358.654 272.8 358.654H322.763C336.478 358.654 347.585 369.74 347.585 383.399V387.465ZM427.142 301.033C427.142 314.724 416.036 325.81 402.32 325.81H193.243C179.527 325.81 168.453 314.724 168.453 301.033V296.967C168.453 283.276 179.559 272.222 193.243 272.222H402.352C416.068 272.222 427.174 283.308 427.174 296.967V301.033H427.142Z" fill="#202020"/>
</svg>
