<svg version="1" xmlns="http://www.w3.org/2000/svg" width="933.333" height="933.333" viewBox="0 0 700.000000 700.000000"><path d="M215.9.4c-.2.2-3.5.6-7.4.9-10.9 1-22.9 3.3-36.5 7.2-14.2 4-13.5 3.8-17.5 5.4-1.6.6-5.5 2.1-8.5 3.3-3 1.2-10 4.4-15.5 7.2C79.3 49.8 38.2 94.8 17.3 148 10.9 164.3 5 185.2 3.4 197.5c-.3 2.7-.8 5.2-.9 5.5-2 3.4-3.1 267.7-1.2 285 4.8 42.4 20.2 82.4 45 116.5 2.9 3.8 5.4 7.2 5.7 7.5.3.3 2.8 3.2 5.5 6.5 21.3 25.4 51.5 47.8 83.1 61.9 21.3 9.4 46.7 16.3 67.9 18.3 14.7 1.5 46.1.8 57-1.2 31-5.7 56.7-15.1 80.6-29.4 3.5-2.1 22.2-13.2 41.4-24.6 19.3-11.5 44-26.2 55-32.8 11-6.6 21.6-12.9 23.5-14 1.9-1 10-5.9 18-10.7 14.1-8.5 90.3-53.9 96.7-57.6 38.4-22.4 50.7-31 64.6-44.9 11.5-11.6 22.5-25.8 28.7-37.1 1.8-3.3 3.6-6.4 4-6.9.5-.6 2.9-5.7 5.5-11.5 5-11.3 10.7-28.9 12.4-38.5.6-3.3 1.3-7.2 1.6-8.7 1.4-7.4 1.6-10.6 1.9-27.3.2-11.6-.1-21.6-1-28-7.3-53-33.2-97.1-74.9-127.5-6.8-5-63.2-39-64.6-39-.5 0-.9-.5-.9-1 0-.6-.4-1-.9-1-.6 0-72.6-42.4-83.1-48.9-3.1-2-21.6-13-55-32.9C400 64 381.7 53 378.3 50.9c-3.4-2.2-6.7-3.9-7.3-3.9-.5 0-1-.5-1-1 0-.6-.4-1-.9-1s-6.9-3.6-14.3-8.1c-31.6-19.2-59-29.6-90.8-34.5-9-1.4-47-3-48.1-2z"/></svg>