<?xml version="1.0" standalone="no"?>
<!DOCTYPE svg PUBLIC "-//W3C//DTD SVG 20010904//EN"
 "http://www.w3.org/TR/2001/REC-SVG-20010904/DTD/svg10.dtd">
<svg version="1.0" xmlns="http://www.w3.org/2000/svg"
 width="1024.000000pt" height="1024.000000pt" viewBox="0 0 1024.000000 1024.000000"
 preserveAspectRatio="xMidYMid meet">
<metadata>
Created by potrace 1.14, written by Peter Selinger 2001-2017
</metadata>
<g transform="translate(0.000000,1024.000000) scale(0.100000,-0.100000)"
fill="#000000" stroke="none">
<path d="M6858 9000 c-259 -45 -529 -228 -789 -536 -308 -363 -558 -809 -718
-1279 -34 -102 -96 -315 -105 -360 -3 -16 -14 -73 -25 -125 -11 -52 -22 -106
-24 -120 -3 -14 -10 -58 -17 -97 l-13 -73 -270 -2 -270 -3 -59 -173 c-33 -96
-57 -177 -54 -180 4 -3 137 -4 296 -3 291 2 295 2 292 -30 -9 -70 -24 -190
-27 -209 -2 -14 -6 -56 -10 -95 -4 -38 -8 -83 -10 -100 -3 -16 -7 -61 -10
-100 -3 -38 -8 -94 -10 -122 -7 -71 -14 -155 -20 -228 -3 -33 -7 -85 -10 -115
-7 -77 -13 -142 -20 -230 -3 -41 -8 -86 -10 -100 -2 -14 -6 -59 -10 -100 -4
-41 -8 -86 -10 -100 -4 -31 -14 -110 -20 -170 -3 -25 -7 -61 -10 -80 -3 -19
-7 -48 -9 -65 -12 -91 -18 -133 -22 -155 -2 -14 -6 -45 -10 -70 -8 -69 -63
-396 -79 -475 -7 -38 -16 -87 -19 -109 -9 -55 -14 -59 -49 -36 -182 120 -425
184 -702 184 -166 0 -257 -10 -470 -49 -16 -4 -77 -20 -134 -36 -489 -142
-916 -425 -1154 -766 -243 -346 -247 -702 -13 -939 79 -81 181 -149 271 -183
33 -13 69 -27 80 -32 35 -15 138 -38 236 -53 94 -14 411 -15 489 -1 396 70
648 159 929 327 195 118 425 318 532 463 24 33 76 101 115 152 178 228 326
524 446 888 59 183 162 555 184 673 3 12 24 105 49 205 38 160 69 289 80 337
2 8 17 74 35 145 41 172 140 587 178 750 43 181 132 600 132 618 0 11 17 16
68 22 37 3 78 8 92 10 14 2 54 6 90 10 36 3 79 7 95 10 17 2 62 7 100 11 39 4
79 8 90 9 11 1 34 3 52 4 29 1 35 8 84 99 28 53 65 121 82 150 l29 53 -355 -3
c-196 -1 -358 0 -360 2 -5 5 13 145 28 220 3 14 8 41 11 60 3 19 12 67 21 105
8 39 17 81 19 95 3 14 12 52 21 85 8 33 17 68 18 77 2 10 18 71 35 135 129
483 307 865 490 1053 111 114 204 160 319 157 60 -2 72 -6 109 -35 94 -75 152
-203 241 -537 18 -66 39 -132 47 -147 8 -14 14 -33 14 -42 0 -19 69 -41 103
-32 44 11 49 44 43 277 -7 248 -16 472 -21 509 -2 14 -6 48 -10 75 -31 237
-131 393 -300 471 -118 54 -288 76 -417 54z m-2903 -5875 c28 -3 68 -10 90
-16 22 -6 47 -13 55 -14 31 -7 107 -45 150 -76 212 -152 226 -409 37 -665
-218 -296 -668 -515 -1062 -517 -275 -1 -484 99 -566 271 -100 209 27 508 306
721 22 17 45 34 50 38 55 43 181 111 281 153 142 59 268 92 401 105 37 4 69 8
70 9 4 4 138 -3 188 -9z"/>
</g>
</svg>
