<svg width="256" height="256" viewBox="0 0 256 256" fill="none" xmlns="http://www.w3.org/2000/svg">
<rect width="256" height="256" fill="white"/>
<path d="M224.013 72.4661C219.18 64.0229 212.254 56.9679 203.904 51.9809C195.554 46.9939 186.061 44.2432 176.339 43.9935C171.215 35.7375 164.07 28.9257 155.581 24.2024C147.092 19.479 137.539 17 127.826 17C118.112 17 108.56 19.479 100.07 24.2024C91.5816 28.9257 84.4367 35.7375 79.3121 43.9935C69.6128 44.3407 60.158 47.1321 51.8242 52.1094C43.4904 57.0868 36.5473 64.0885 31.6384 72.4661C26.7895 80.8742 24.1673 90.382 24.0203 100.088C23.8734 109.795 26.2064 119.378 30.7984 127.928C26.1965 136.492 23.8586 146.091 24.0066 155.813C24.1547 165.535 26.7838 175.058 31.6444 183.477C36.505 191.897 43.4356 198.933 51.7784 203.918C60.1211 208.904 69.599 211.673 79.3121 211.963C84.4279 220.23 91.57 227.053 100.06 231.785C108.55 236.517 118.107 239 127.826 239C137.544 239 147.101 236.517 155.591 231.785C164.082 227.053 171.223 220.23 176.339 211.963C186.062 211.695 195.554 208.94 203.912 203.961C212.269 198.982 219.213 191.945 224.082 183.519C228.951 175.094 231.582 165.562 231.726 155.831C231.87 146.1 229.521 136.494 224.902 127.928C229.389 119.343 231.657 109.771 231.502 100.084C231.347 90.3975 228.772 80.903 224.013 72.4661ZM180.094 50.9138C187.954 51.7911 195.497 54.5017 202.12 58.8276C208.742 63.1534 214.257 68.9738 218.221 75.8206C222.186 82.6673 224.489 90.35 224.946 98.2494C225.402 106.149 224 114.046 220.851 121.305C216.101 114.75 210.008 109.283 202.98 105.268C195.953 101.254 188.151 98.7835 180.094 98.0227C183.604 90.5755 185.377 82.429 185.281 74.1962C185.026 66.1787 183.266 58.2804 180.094 50.9138ZM180.094 104.943C186.949 105.727 193.58 107.861 199.608 111.221C206.619 115.42 212.61 121.128 217.146 127.928C212.698 134.855 206.692 140.645 199.608 144.834C193.651 148.36 186.986 150.521 180.094 151.162C183.352 143.85 185.035 135.934 185.034 127.928C185.04 120.002 183.356 112.166 180.094 104.943ZM127.826 23.4791C135.698 23.4752 143.462 25.315 150.497 28.8514C157.531 32.3878 163.64 37.5228 168.336 43.845C160.308 44.6793 152.555 47.2427 145.611 51.3588C138.437 55.3917 132.259 60.9828 127.529 67.7207C122.8 60.9828 116.621 55.3917 109.448 51.3588C102.466 47.3656 94.7557 44.8108 86.772 43.845C91.6397 37.5752 97.8601 32.4869 104.969 28.9603C112.078 25.4337 119.892 23.56 127.826 23.4791ZM137.311 144.686C146.059 152.167 156.886 156.79 168.336 157.934C164.215 163.538 158.972 168.222 152.941 171.686C146.91 175.15 140.225 177.318 133.31 178.052C138.032 167.657 139.43 156.055 137.311 144.834V144.686ZM137.311 111.072C139.337 99.8158 137.942 88.2108 133.31 77.7553C140.198 78.5868 146.849 80.7963 152.867 84.253C158.884 87.7093 164.145 92.3415 168.336 97.8739C156.929 99.2523 146.159 103.885 137.311 111.221V111.072ZM122.095 178.299C115.206 177.491 108.552 175.296 102.532 171.847C96.5124 168.398 91.2523 163.766 87.0681 158.231C98.4906 156.976 109.285 152.366 118.094 144.983C116.071 156.288 117.464 167.939 122.095 178.448V178.299ZM118.094 111.072C109.32 103.641 98.5039 99.0406 87.0681 97.8739C91.1849 92.2652 96.4273 87.5788 102.459 84.1143C108.49 80.6497 115.179 78.484 122.095 77.7553C117.45 88.26 116.056 99.9158 118.094 111.221V111.072ZM83.0669 50.4691C91.223 50.7983 99.183 53.0689 106.286 57.0927C112.294 60.6502 117.561 65.3329 121.799 70.8844C113.838 71.7229 106.142 74.2294 99.2139 78.2407C92.2851 82.2521 86.2785 87.6783 81.5848 94.1667C78.851 87.806 77.3907 80.971 77.2866 74.048C77.301 65.886 79.2839 57.8483 83.0669 50.6172V50.4691ZM81.5848 107.662C88.312 116.987 97.7479 124.012 108.608 127.78C97.8397 131.695 88.4474 138.67 81.5848 147.85C78.8512 141.506 77.3907 134.687 77.2866 127.78C77.2627 120.891 78.7291 114.079 81.5848 107.81V107.662ZM75.5576 205.042C67.6981 204.165 60.1539 201.454 53.5319 197.128C46.91 192.802 41.3951 186.982 37.4306 180.135C33.4662 173.288 31.1629 165.606 30.7061 157.706C30.2492 149.807 31.6515 141.91 34.8002 134.651C39.4983 141.073 45.4684 146.458 52.3382 150.469C59.4708 154.555 67.3811 157.099 75.5576 157.934C72.1574 165.408 70.4695 173.549 70.6173 181.76C70.5947 189.831 72.2783 197.816 75.5576 205.191V205.042ZM75.5576 151.31C68.6948 150.531 62.0585 148.379 56.0434 144.983C48.8913 140.88 42.8791 135.051 38.5547 128.027C42.9833 121.089 48.9723 115.282 56.0434 111.072C62.0136 107.583 68.6736 105.44 75.5576 104.795C72.3629 112.132 70.7141 120.049 70.7141 128.052C70.7141 136.056 72.3629 143.973 75.5576 151.31ZM52.5851 105.338C45.6226 109.202 39.6396 114.614 35.0966 121.156C31.9751 113.912 30.5821 106.04 31.0279 98.1637C31.4738 90.2875 33.7464 82.6236 37.6655 75.7781C41.7119 68.9785 47.2544 63.1916 53.8718 58.8574C60.4891 54.5233 68.0071 51.7558 75.854 50.7656C72.5909 58.093 70.9075 66.026 70.9137 74.048C70.9649 82.2648 72.7318 90.3804 76.1009 97.8739C67.8026 98.6712 59.7777 101.269 52.5851 105.487V105.338ZM77.2866 181.76C77.2154 174.818 78.6835 167.947 81.5848 161.641C86.305 168.103 92.3182 173.51 99.2416 177.519C106.165 181.527 113.847 184.049 121.799 184.923C117.638 190.546 112.356 195.242 106.286 198.715C99.1742 202.718 91.2192 204.987 83.0669 205.339C79.2233 198.131 77.2366 190.078 77.2866 181.908V181.76ZM127.826 232.329C119.955 232.335 112.193 230.49 105.165 226.944C98.1364 223.398 92.0392 218.249 87.3649 211.913C95.4448 211.011 103.246 208.424 110.266 204.32C117.286 200.217 123.369 194.687 128.122 188.087C132.851 194.825 139.03 200.416 146.204 204.449C153.178 208.45 160.893 210.989 168.879 211.913C164.055 218.244 157.848 223.388 150.733 226.952C143.617 230.516 135.782 232.405 127.826 232.477V232.329ZM172.288 205.339C164.12 204.987 156.149 202.719 149.019 198.715C143.022 195.143 137.758 190.462 133.507 184.923C141.468 184.085 149.163 181.579 156.092 177.567C163.02 173.556 169.027 168.129 173.721 161.641C176.455 168.002 177.915 174.837 178.019 181.76C178.298 190.037 176.335 198.235 172.338 205.487L172.288 205.339ZM174.017 148.146C167.298 138.833 157.882 131.81 147.043 128.027C157.788 124.069 167.156 117.081 174.017 107.909C176.751 114.269 178.211 121.104 178.315 128.027C178.284 135.001 176.838 141.896 174.066 148.295L174.017 148.146ZM174.017 94.4138C169.295 87.9586 163.28 82.5595 156.356 78.5592C149.432 74.5594 141.751 72.0464 133.804 71.181C138.317 65.0788 144.148 60.0738 150.863 56.5391C157.577 53.0044 165.002 51.031 172.584 50.7656C176.416 58.012 178.384 66.0979 178.315 74.2952C178.22 81.2618 176.777 88.1444 174.066 94.562L174.017 94.4138ZM217.986 180.475C213.945 187.279 208.404 193.07 201.786 197.405C195.167 201.739 187.647 204.504 179.797 205.487C183.055 198.158 184.738 190.226 184.738 182.205C184.687 173.988 182.92 165.872 179.55 158.379C187.752 157.557 195.685 154.995 202.819 150.865C209.794 147.021 215.794 141.626 220.358 135.096C221.197 137.37 222.037 139.694 222.926 142.264C224.771 148.631 225.284 155.31 224.434 161.884C223.584 168.458 221.389 174.787 217.986 180.475Z" fill="#EE3D3D"/>
</svg>
