<?xml version="1.0" encoding="UTF-8" standalone="no"?>
<svg width="36px" height="36px" viewBox="0 0 36 36" version="1.1" xmlns="http://www.w3.org/2000/svg" xmlns:xlink="http://www.w3.org/1999/xlink">
    <!-- Generator: Sketch 3.6.1 (26313) - http://www.bohemiancoding.com/sketch -->
    <title>mask-icon</title>
    <desc>Created with Sketch.</desc>
    <defs></defs>
    <g id="Page-1" stroke="none" stroke-width="1" fill="none" fill-rule="evenodd">
        <g id="mask-icon" fill="#000000">
            <path d="M0,18.0001714 C0,22.2134296 1.45180362,26.0853223 3.87661726,29.1521273 L3.87661726,29.1521273 L13.0881673,19.940402 C12.8503127,19.3392424 12.7156199,18.6856441 12.7156199,18.0001714 L12.7156199,18.0001714 C12.7156199,15.0814284 15.081484,12.7155193 17.9998286,12.7155193 L17.9998286,12.7155193 C20.918516,12.7155193 23.2843801,15.0814284 23.2843801,18.0001714 L23.2843801,18.0001714 C23.2843801,18.6856441 23.1496873,19.3392424 22.9118327,19.940402 L22.9118327,19.940402 L32.12304,29.1521273 C34.5481964,26.0853223 36,22.2134296 36,18.0001714 L36,18.0001714 C36,8.05910298 27.9410505,0 17.9998286,0 L17.9998286,0 C8.05894953,0 0,8.05910298 0,18.0001714 M14.5691029,22.0091587 L5.56970268,31.009073 C8.80130237,34.0981559 13.1769343,36 17.9998286,36 L17.9998286,36 C22.8230657,36 27.1986976,34.0981559 30.4302973,31.009073 L30.4302973,31.009073 L21.4305544,22.0091587 C21.3356182,22.0903872 17.9998286,16.6364234 17.9998286,16.6364234 L17.9998286,16.6364234 C17.9998286,16.6364234 14.6640391,22.0903872 14.5691029,22.0091587" id="Fill-4"></path>
        </g>
    </g>
</svg>