<?xml version="1.0" standalone="no"?>
<!DOCTYPE svg PUBLIC "-//W3C//DTD SVG 20010904//EN"
 "http://www.w3.org/TR/2001/REC-SVG-20010904/DTD/svg10.dtd">
<svg version="1.0" xmlns="http://www.w3.org/2000/svg"
 width="70.000000pt" height="70.000000pt" viewBox="0 0 70.000000 70.000000"
 preserveAspectRatio="xMidYMid meet">
<metadata>
Created by potrace 1.14, written by Peter Selinger 2001-2017
</metadata>
<g transform="translate(0.000000,70.000000) scale(0.100000,-0.100000)"
fill="#000000" stroke="none">
<path d="M412 658 c2 -29 -2 -47 -12 -56 -8 -8 -10 -11 -3 -7 9 4 12 -8 11
-47 -1 -30 1 -59 6 -66 4 -7 2 -12 -4 -12 -6 0 -8 -4 -5 -10 9 -14 -8 -12 -24
3 -11 10 -12 9 -6 -2 6 -10 4 -12 -6 -5 -8 5 -25 10 -38 12 -14 2 -33 8 -44
14 -17 8 -19 8 -14 -5 5 -13 2 -15 -18 -7 -14 5 -25 6 -25 1 0 -4 -11 -7 -25
-6 -14 2 -25 -1 -25 -5 0 -5 -9 -7 -20 -5 -11 2 -18 0 -15 -6 6 -8 -2 -11 -22
-8 -3 0 -10 -6 -15 -15 -5 -9 -13 -14 -18 -11 -11 7 -70 -74 -70 -97 0 -10 -5
-18 -11 -18 -6 0 -9 -25 -8 -65 1 -36 6 -65 12 -65 5 0 7 -7 3 -15 -3 -9 3
-19 14 -25 11 -6 20 -20 20 -30 0 -11 4 -19 9 -18 5 2 17 -6 26 -17 9 -11 14
-13 10 -5 -4 9 -1 8 8 -3 9 -10 19 -19 24 -20 4 -1 7 -5 6 -9 -2 -4 6 -5 16
-3 10 2 24 -1 32 -6 12 -7 12 -9 0 -9 -8 0 -12 -3 -9 -6 4 -3 16 0 28 6 15 8
20 8 16 1 -5 -8 13 -11 59 -11 50 0 64 3 59 13 -5 7 0 6 11 -3 15 -12 17 -12
10 -1 -6 11 -4 13 8 8 10 -3 17 -2 17 4 0 6 5 7 10 4 6 -3 13 1 16 9 3 9 10
14 14 11 5 -3 16 2 24 11 9 8 16 13 16 10 0 -3 10 5 23 17 21 20 39 50 41 70
1 4 7 11 15 16 10 7 11 13 1 31 -8 15 -8 20 -1 16 8 -5 10 8 8 43 -1 28 1 51
6 51 5 0 4 7 -4 16 -10 13 -10 17 0 24 11 6 11 9 0 13 -11 4 -11 6 -1 6 7 1
10 6 7 12 -11 16 -11 89 -1 89 5 0 3 7 -5 16 -10 13 -10 17 2 25 12 7 12 9 -1
9 -10 0 -11 3 -4 8 6 4 13 13 16 21 4 16 59 23 69 9 3 -5 19 -1 36 7 29 14 31
18 23 46 -5 18 -5 27 1 24 5 -4 9 -2 9 4 0 5 -4 12 -9 15 -5 3 -7 15 -4 26 5
19 0 20 -136 20 l-142 0 3 -42z m-128 -309 c7 11 46 3 46 -10 0 -5 6 -8 13 -6
6 1 11 -3 10 -9 -1 -7 6 -10 17 -7 15 4 18 1 15 -16 -2 -12 0 -19 4 -16 5 3
12 -2 15 -11 4 -10 2 -13 -7 -9 -6 4 -3 -1 7 -9 11 -9 14 -16 7 -16 -7 0 -9
-5 -6 -10 4 -6 2 -16 -3 -23 -6 -7 -12 -16 -14 -22 -1 -5 -7 -9 -11 -7 -5 1
-6 -2 -2 -7 3 -6 -5 -16 -17 -23 -22 -12 -30 -14 -63 -21 -8 -2 -18 -6 -21
-10 -13 -12 -24 -7 -24 11 0 13 -2 14 -9 3 -6 -9 -11 -10 -15 -2 -4 6 -12 9
-17 6 -5 -4 -9 -2 -9 3 0 5 -11 15 -25 22 -14 7 -23 16 -20 18 3 3 -2 16 -10
29 -10 15 -12 23 -4 23 8 0 7 6 -2 17 -12 14 -12 16 0 8 11 -6 13 -4 9 7 -7
16 45 81 56 71 3 -4 6 -1 6 5 0 6 9 9 20 7 11 -2 20 1 20 7 0 7 5 6 14 -1 9
-7 17 -8 20 -2z"/>
</g>
</svg>
