<?xml version="1.0" standalone="no"?>
<!DOCTYPE svg PUBLIC "-//W3C//DTD SVG 20010904//EN"
 "http://www.w3.org/TR/2001/REC-SVG-20010904/DTD/svg10.dtd">
<svg version="1.0" xmlns="http://www.w3.org/2000/svg"
 width="1024.000000pt" height="1024.000000pt" viewBox="0 0 1024.000000 1024.000000"
 preserveAspectRatio="xMidYMid meet">
<metadata>
Created by potrace 1.14, written by Peter Selinger 2001-2017
</metadata>
<g transform="translate(0.000000,1024.000000) scale(0.100000,-0.100000)"
fill="#000000" stroke="none">
<path d="M1116 10229 c-288 -37 -558 -176 -764 -393 -168 -178 -275 -385 -329
-636 -17 -81 -18 -254 -18 -4085 0 -3831 1 -4004 18 -4085 79 -368 295 -673
613 -863 112 -67 318 -145 351 -133 9 4 11 2 7 -6 -5 -8 2 -9 25 -5 23 5 30 3
25 -5 -5 -8 3 -9 30 -5 21 3 34 2 31 -4 -4 -5 1527 -9 4022 -8 2406 0 4020 4
4008 10 -14 6 -4 7 30 3 39 -4 47 -3 35 6 -12 9 -10 10 12 6 34 -8 120 13 112
26 -4 6 1 8 14 4 22 -7 155 41 147 53 -2 4 16 17 40 29 54 26 60 20 8 -7 -21
-11 -34 -20 -30 -21 20 -1 87 42 81 52 -4 7 -3 8 4 4 12 -7 97 37 109 56 4 7
1 8 -7 3 -9 -5 -11 -4 -6 4 4 6 12 9 17 5 5 -3 31 11 57 32 95 76 221 208 170
178 -7 -4 -2 5 11 19 28 30 41 36 20 9 -8 -10 1 -2 18 17 18 20 31 41 28 48
-2 7 1 15 7 19 7 5 8 2 3 -6 -5 -8 -4 -11 3 -7 19 12 63 97 56 109 -4 7 -3 8
4 4 10 -6 53 61 52 81 -1 4 -10 -9 -21 -30 -27 -52 -33 -46 -7 8 12 24 25 42
29 40 12 -8 60 125 53 147 -4 13 -2 18 4 14 13 -8 34 78 26 112 -4 18 -3 23 4
14 7 -10 11 -3 15 26 11 65 8 8074 -2 8067 -6 -3 -7 10 -4 31 4 27 3 35 -5 30
-8 -5 -10 2 -5 25 4 21 2 30 -4 26 -6 -4 -8 4 -5 20 3 14 1 24 -4 20 -5 -3
-10 10 -11 28 -2 42 -63 191 -115 280 -206 352 -557 585 -958 634 -106 14
-7901 13 -8004 0z m2570 -2345 l71 -36 38 -110 38 -110 246 -307 c222 -276
576 -709 786 -962 95 -114 134 -144 185 -143 54 2 86 28 122 101 32 65 32 66
14 97 -49 83 -86 167 -86 194 0 39 20 55 127 101 50 21 112 53 137 70 26 18
72 44 102 58 103 47 241 21 333 -63 66 -59 76 -84 74 -196 -2 -114 -12 -141
-84 -221 -33 -38 -81 -74 -149 -113 -92 -54 -100 -62 -120 -108 -11 -27 -18
-51 -16 -54 3 -2 36 17 75 42 92 59 110 68 222 110 87 33 102 36 209 36 63 0
170 5 237 10 142 11 177 23 480 161 165 75 215 93 360 128 187 45 382 81 438
81 62 0 125 -45 125 -89 -1 -39 -51 -124 -83 -139 -24 -12 -36 -11 -82 4 -30
9 -63 23 -72 30 -16 11 -39 2 -173 -66 -130 -67 -173 -84 -267 -104 -81 -18
-139 -39 -213 -76 -165 -83 -412 -174 -659 -243 -260 -73 -234 -58 -345 -211
-75 -104 -97 -150 -130 -266 -15 -52 -52 -154 -82 -227 l-55 -131 37 -89 c21
-51 52 -105 73 -128 85 -93 152 -212 173 -308 15 -70 41 -96 118 -113 105 -25
265 -122 470 -289 69 -56 184 -142 255 -191 144 -100 281 -163 473 -215 59
-17 148 -43 197 -59 113 -38 516 -253 663 -354 102 -70 114 -76 254 -115 136
-38 156 -41 271 -41 l124 0 53 -80 c49 -75 52 -82 40 -109 -18 -45 -57 -56
-148 -43 -43 6 -120 14 -172 17 -52 3 -131 11 -175 17 -73 9 -87 15 -165 68
-136 92 -186 113 -520 210 -376 110 -961 308 -1225 415 -262 106 -502 185
-578 190 -120 9 -423 26 -478 27 -48 1 -67 -5 -141 -44 -48 -25 -147 -85 -222
-132 -140 -90 -391 -216 -557 -280 -127 -49 -142 -58 -389 -222 -118 -79 -243
-155 -277 -169 -34 -13 -178 -56 -320 -95 -252 -69 -428 -101 -693 -126 -65
-6 -85 -13 -161 -58 -79 -46 -93 -59 -137 -126 -77 -118 -101 -140 -156 -140
-74 0 -141 19 -165 46 -26 30 -59 31 -214 4 -93 -16 -125 -18 -164 -10 -70 15
-113 44 -113 75 0 20 10 30 58 53 31 16 89 40 127 52 39 13 151 64 250 115
153 78 199 96 310 124 142 36 572 196 862 321 180 78 185 81 300 180 133 114
180 146 449 305 106 62 282 172 393 244 137 89 223 138 266 152 79 25 105 54
105 116 0 24 11 120 25 214 14 93 34 255 44 358 l19 188 -23 99 c-13 54 -31
149 -39 209 -9 61 -20 128 -26 150 -17 69 -11 107 25 181 40 81 42 95 28 289
l-8 130 -480 699 -479 699 -120 100 c-67 54 -123 104 -125 110 -7 19 20 116
40 141 30 38 78 35 165 -10z m6541 -6796 c-3 -8 -6 -5 -6 6 -1 11 2 17 5 13 3
-3 4 -12 1 -19z m-167 -468 c-6 -11 -13 -20 -16 -20 -2 0 0 9 6 20 6 11 13 20
16 20 2 0 0 -9 -6 -20z m-60 -94 c0 -2 -8 -10 -17 -17 -16 -13 -17 -12 -4 4
13 16 21 21 21 13z m-90 -109 c0 -1 -24 -25 -52 -52 l-53 -50 50 53 c46 48 55
57 55 49z m-110 -100 c0 -2 -12 -14 -27 -28 l-28 -24 24 28 c23 25 31 32 31
24z m-60 -51 c0 -2 -8 -10 -17 -17 -16 -13 -17 -12 -4 4 13 16 21 21 21 13z
m-100 -71 c0 -2 -10 -9 -22 -15 -22 -11 -22 -10 -4 4 21 17 26 19 26 11z"/>
</g>
</svg>
