<?xml version="1.0" encoding="UTF-8" standalone="no"?>
<svg width="256px" height="256px" viewBox="0 0 256 256" version="1.1" xmlns="http://www.w3.org/2000/svg" xmlns:xlink="http://www.w3.org/1999/xlink">
    <g stroke="none" stroke-width="1" fill="none" fill-rule="evenodd">
        <g fill="#000000">
            <path d="M248,127.998102 C248,167.768049 194.272984,200 128.001593,200 C61.7238294,200 8,167.768049 8,127.998102 C8,88.2357469 61.7238294,56 128.001593,56 C194.269798,56.0037956 248,88.2395424 248,127.998102 L248,127.998102 Z M101.105519,171.841234 C109.428077,173.594786 118.381517,174.547473 127.707752,174.547473 C172.032062,174.547473 207.963717,152.988654 207.963717,126.389324 C207.963717,99.7937893 172.032062,78.2311756 127.707752,78.2311756 C118.381517,78.2311756 109.431263,79.1876584 101.105519,80.9412102 L101.105519,171.841234 L101.105519,171.841234 Z" id="Shape"></path>
        </g>
    </g>
</svg>