<?xml version="1.0" standalone="no"?>
<!DOCTYPE svg PUBLIC "-//W3C//DTD SVG 20010904//EN"
 "http://www.w3.org/TR/2001/REC-SVG-20010904/DTD/svg10.dtd">
<svg version="1.0" xmlns="http://www.w3.org/2000/svg"
 width="512.000000pt" height="512.000000pt" viewBox="0 0 512.000000 512.000000"
 preserveAspectRatio="xMidYMid meet">
<metadata>
Created by potrace 1.14, written by Peter Selinger 2001-2017
</metadata>
<g transform="translate(0.000000,512.000000) scale(0.100000,-0.100000)"
fill="#000000" stroke="none">
<path d="M2347 5114 c-2 -2 -19 -6 -38 -7 -19 -2 -40 -6 -47 -11 -6 -4 -12 -3
-12 3 0 7 -10 6 -30 -1 -17 -5 -37 -7 -45 -4 -8 3 -15 1 -15 -4 0 -6 -3 -9 -7
-8 -13 3 -127 -14 -138 -20 -11 -7 -24 -10 -65 -15 -14 -2 -31 -6 -36 -10 -6
-3 -25 -9 -42 -12 -17 -3 -44 -10 -59 -17 -32 -13 -28 -12 -70 -22 -18 -4 -33
-12 -33 -17 0 -6 -4 -8 -9 -5 -5 3 -26 -2 -47 -11 -22 -9 -42 -16 -46 -15 -5
1 -8 -3 -8 -9 0 -5 -4 -8 -8 -5 -5 3 -55 -17 -111 -44 -56 -28 -106 -50 -112
-50 -5 0 -9 -5 -9 -11 0 -6 -7 -9 -15 -5 -8 3 -15 2 -15 -2 0 -5 -19 -19 -42
-32 -24 -13 -46 -28 -50 -34 -4 -6 -8 -8 -8 -3 0 6 -138 -83 -166 -108 -6 -5
-22 -17 -34 -25 -13 -8 -32 -23 -42 -32 -10 -10 -18 -15 -18 -12 0 3 -9 -4
-20 -17 -10 -13 -19 -21 -20 -17 0 8 -10 -1 -161 -149 -121 -117 -181 -186
-284 -325 -19 -26 -35 -50 -35 -53 0 -3 -8 -15 -18 -26 -11 -10 -25 -32 -33
-47 -8 -15 -16 -29 -19 -32 -3 -3 -12 -18 -20 -35 -8 -16 -18 -32 -21 -35 -10
-8 -53 -94 -51 -102 1 -5 -2 -8 -7 -8 -5 0 -11 -10 -15 -22 -8 -32 -6 -29 -33
-70 -13 -21 -21 -38 -19 -38 3 0 -8 -29 -24 -64 -15 -35 -26 -67 -23 -70 4 -3
0 -6 -7 -6 -7 0 -11 -3 -7 -6 3 -3 -3 -26 -14 -51 -10 -25 -17 -49 -14 -53 3
-5 1 -11 -5 -15 -6 -4 -8 -11 -5 -16 4 -5 2 -9 -3 -9 -5 0 -9 -6 -9 -12 0 -7
-7 -38 -16 -68 -15 -52 -20 -74 -32 -137 -3 -16 -8 -41 -12 -58 -10 -48 -19
-112 -30 -205 -11 -104 -6 -570 7 -570 3 0 7 -19 8 -43 5 -78 9 -102 20 -123
6 -12 9 -24 5 -27 -3 -4 0 -26 6 -49 6 -24 13 -52 15 -63 3 -11 10 -33 17 -50
6 -16 12 -42 12 -58 0 -15 4 -27 9 -27 5 0 6 -4 3 -10 -3 -5 -1 -10 5 -10 7 0
10 -6 7 -12 -2 -7 2 -25 10 -40 7 -16 11 -28 7 -28 -3 0 1 -11 10 -25 9 -13
17 -36 18 -50 1 -13 8 -27 15 -29 7 -3 10 -12 7 -21 -3 -8 -1 -15 5 -15 6 0
10 -3 9 -7 -3 -18 87 -203 149 -305 45 -74 78 -123 86 -126 4 -2 5 -8 1 -13
-3 -5 2 -12 10 -15 9 -3 16 -10 16 -16 0 -5 6 -16 12 -23 30 -33 38 -45 33
-45 -3 0 4 -10 17 -23 13 -13 34 -39 48 -57 14 -18 40 -49 57 -69 18 -20 33
-39 33 -43 0 -4 9 -10 20 -13 11 -3 20 -10 20 -15 0 -5 29 -38 65 -73 36 -36
65 -64 65 -62 0 1 17 -13 38 -32 20 -19 53 -47 72 -61 19 -15 40 -34 47 -42 7
-8 13 -12 13 -7 0 4 9 -1 19 -10 35 -32 51 -44 51 -38 0 3 9 -3 19 -12 37 -34
50 -43 61 -43 6 0 13 -7 16 -15 4 -8 10 -13 14 -10 5 3 15 0 22 -7 14 -13 30
-23 107 -65 25 -14 52 -30 59 -36 6 -5 12 -6 12 -2 0 5 8 1 18 -7 9 -9 28 -19
42 -23 14 -4 34 -14 45 -21 11 -8 27 -14 36 -14 9 0 22 -7 30 -16 7 -8 21 -13
31 -11 10 3 16 2 13 -3 -4 -7 40 -24 48 -18 2 2 10 -2 18 -9 14 -11 85 -33
103 -32 5 0 12 -3 15 -8 3 -5 47 -19 96 -32 115 -29 122 -31 170 -37 21 -3 44
-8 49 -12 6 -3 22 -7 36 -9 14 -1 45 -6 70 -9 25 -3 75 -7 112 -7 36 -1 64 -5
62 -9 -5 -7 367 -7 381 0 5 3 31 6 57 5 26 0 48 3 48 7 0 3 15 6 33 5 17 -1
37 0 42 4 6 3 24 6 40 6 17 0 35 3 40 7 11 7 106 23 118 20 4 -1 7 2 7 6 0 4
8 8 18 9 9 0 27 4 40 7 12 3 32 8 43 11 25 5 87 24 109 32 20 8 21 8 55 18 17
4 35 11 40 15 6 4 28 13 50 20 22 7 45 16 51 21 6 5 14 6 17 2 4 -3 7 -2 7 3
0 6 24 18 53 28 28 11 59 25 68 32 8 8 23 14 32 14 9 0 17 5 17 10 0 6 5 10
10 10 6 0 28 11 51 25 22 14 45 23 52 19 7 -4 9 -4 5 1 -4 4 0 14 9 20 16 12
16 14 0 29 -9 10 -17 14 -17 10 0 -4 -9 3 -20 16 -11 13 -20 20 -20 16 0 -6
-44 31 -86 72 -8 7 -14 10 -14 6 0 -4 -8 2 -17 12 -10 11 -61 53 -113 93 -52
41 -96 78 -98 83 -2 4 -10 8 -18 8 -8 0 -17 7 -20 15 -4 8 -12 15 -20 15 -8 0
-14 7 -14 17 0 9 -3 13 -6 10 -4 -4 -34 16 -68 44 -33 28 -70 58 -81 67 -11 9
-21 15 -22 14 -2 -1 -11 6 -22 16 -27 25 -73 64 -112 92 -18 14 -44 35 -56 47
-13 12 -23 19 -23 15 0 -4 -7 2 -15 12 -8 11 -15 16 -15 12 0 -4 -10 4 -22 17
-13 13 -44 38 -70 57 -27 18 -48 36 -48 40 0 3 -14 14 -30 24 -17 9 -39 27
-50 39 -11 11 -20 17 -20 12 0 -4 -9 2 -20 15 -11 13 -20 19 -20 14 0 -5 -5
-2 -10 7 -5 9 -35 36 -67 60 -32 24 -60 46 -63 49 -3 3 -32 27 -65 52 -33 25
-70 54 -81 64 -12 11 -36 30 -54 44 -18 14 -39 31 -46 38 -7 6 -15 12 -18 12
-6 0 -50 37 -82 67 -7 7 -16 13 -21 13 -5 0 -15 9 -23 20 -8 11 -19 20 -25 20
-6 0 -17 9 -25 20 -8 11 -20 20 -26 20 -7 0 -14 3 -16 8 -6 14 -104 92 -117
92 -7 0 -9 5 -6 10 3 6 1 10 -5 10 -14 0 -40 25 -40 39 0 6 -4 11 -9 11 -11 0
-33 74 -34 115 0 48 36 145 54 145 4 0 16 13 25 29 10 17 21 28 26 25 5 -3 8
-2 7 3 -4 15 13 43 22 37 5 -3 9 2 9 10 0 9 5 16 12 16 6 0 9 3 6 6 -4 3 1 13
10 23 9 9 28 32 42 50 14 18 35 44 48 57 12 12 22 28 22 34 0 5 3 10 8 10 4 0
17 15 30 34 12 18 36 48 52 66 17 19 30 38 30 42 0 5 5 6 10 3 6 -4 9 -3 8 2
-3 8 110 156 169 222 18 20 33 40 33 44 0 4 10 19 23 32 12 13 33 38 47 55 14
18 33 40 43 51 9 10 15 19 12 19 -3 0 4 11 17 25 13 13 28 30 33 37 6 7 21 27
35 44 14 17 36 45 50 64 14 18 31 39 38 46 6 7 12 17 12 23 0 6 4 11 8 11 4 0
26 23 47 52 22 29 49 62 60 75 11 13 28 33 37 46 45 58 88 113 100 127 7 8 29
35 48 60 19 25 42 50 50 57 8 7 12 13 9 13 -4 0 11 19 32 42 22 24 39 47 39
51 0 4 16 23 35 42 19 20 34 38 34 41 0 4 34 50 66 87 6 7 28 35 50 62 22 28
47 55 55 62 8 7 11 13 7 13 -4 0 2 10 14 23 11 12 33 38 48 57 14 19 34 44 44
55 10 11 26 32 35 48 9 15 23 27 31 27 8 0 12 3 8 6 -5 6 47 78 101 139 10 11
31 38 48 60 16 22 35 46 42 53 28 30 62 80 62 90 0 7 -6 12 -13 12 -7 0 -23 9
-35 21 -12 11 -27 17 -32 14 -6 -3 -10 -2 -10 3 0 8 -64 42 -76 41 -4 0 -10 4
-13 9 -6 9 -159 84 -171 84 -3 0 -21 8 -41 19 -20 10 -39 15 -43 12 -3 -4 -6
-1 -6 5 0 7 -3 11 -7 10 -11 -3 -86 23 -97 32 -5 5 -15 6 -22 3 -8 -3 -14 0
-14 6 0 6 -3 10 -7 9 -13 -3 -123 25 -123 31 0 4 -8 7 -17 7 -10 1 -34 5 -53
9 -19 4 -46 8 -60 9 -14 1 -27 4 -30 8 -5 6 -58 16 -130 23 -19 2 -35 4 -35 5
0 9 -538 23 -548 14z"/>
<path d="M4262 4443 c-12 -14 -22 -28 -22 -33 0 -4 -7 -11 -16 -14 -9 -4 -14
-9 -11 -12 3 -3 -6 -18 -21 -34 -36 -36 -72 -80 -72 -87 0 -2 -6 -10 -12 -17
-27 -27 -89 -105 -89 -110 1 -4 -7 -14 -16 -24 -10 -9 -36 -40 -58 -67 -22
-28 -42 -52 -45 -55 -3 -3 -17 -21 -32 -42 -15 -20 -36 -44 -45 -54 -10 -10
-18 -20 -18 -24 0 -4 -7 -13 -15 -22 -8 -8 -28 -32 -45 -54 -16 -21 -40 -49
-52 -62 -12 -13 -25 -33 -28 -43 -4 -11 -11 -17 -16 -14 -5 4 -9 1 -9 -5 0 -6
-6 -17 -12 -24 -7 -7 -25 -28 -40 -47 -66 -82 -88 -112 -88 -121 0 -5 -4 -6
-10 -3 -5 3 -10 2 -10 -3 0 -5 -10 -20 -21 -33 -12 -13 -29 -35 -38 -49 -16
-26 -53 -70 -83 -102 -10 -10 -15 -18 -11 -18 4 0 -2 -8 -13 -18 -10 -10 -30
-33 -44 -51 -14 -19 -33 -40 -42 -49 -9 -9 -15 -19 -12 -24 3 -4 0 -8 -6 -8
-6 0 -15 -11 -22 -25 -6 -13 -15 -22 -19 -19 -5 3 -9 1 -9 -4 0 -5 -8 -19 -17
-31 -10 -11 -27 -33 -38 -47 -11 -14 -25 -31 -30 -37 -6 -7 -26 -32 -45 -57
-19 -25 -38 -49 -43 -55 -4 -5 -17 -22 -30 -36 -12 -15 -35 -44 -52 -65 -16
-20 -38 -46 -47 -56 -10 -10 -17 -19 -16 -20 2 -3 -35 -48 -64 -79 -9 -9 -14
-20 -11 -22 2 -3 -5 -11 -17 -17 -12 -6 -20 -14 -17 -16 3 -3 -13 -24 -34 -47
-21 -23 -39 -45 -39 -49 0 -4 -12 -21 -27 -37 -41 -43 -54 -61 -49 -61 3 0 -5
-11 -17 -24 -51 -55 -76 -86 -70 -86 4 0 -3 -7 -15 -16 -12 -8 -22 -19 -22
-24 0 -5 -13 -23 -29 -40 -27 -30 -28 -33 -12 -49 9 -10 18 -16 20 -15 2 2 12
-6 22 -18 11 -11 19 -18 19 -14 0 4 11 -4 24 -18 13 -15 26 -26 30 -26 5 0 28
-17 60 -45 55 -49 116 -95 125 -95 6 0 11 -7 11 -16 0 -8 5 -12 10 -9 6 3 10
3 10 -2 0 -4 23 -24 50 -43 27 -19 50 -38 50 -42 0 -5 7 -8 16 -8 8 0 12 -4 9
-10 -3 -5 -1 -10 4 -10 10 0 36 -18 66 -47 7 -7 15 -9 19 -6 3 4 6 -1 6 -10 0
-10 7 -17 15 -17 8 0 15 -4 15 -10 0 -5 5 -10 10 -10 6 0 21 -10 34 -23 13
-12 33 -29 46 -37 13 -8 33 -25 46 -38 13 -13 24 -21 24 -18 0 4 47 -34 81
-67 11 -9 24 -17 29 -17 6 0 10 -4 10 -10 0 -5 7 -10 15 -10 8 0 15 -7 15 -16
0 -8 4 -13 9 -10 5 4 11 3 13 -2 1 -4 23 -23 48 -42 25 -19 47 -37 50 -40 13
-14 100 -81 104 -81 3 0 16 -9 29 -22 13 -12 41 -35 62 -52 21 -16 44 -36 51
-42 7 -7 17 -13 23 -13 6 0 11 -8 11 -17 0 -9 3 -14 6 -10 7 7 84 -51 158
-118 18 -16 36 -31 40 -32 4 -1 22 -13 39 -28 18 -14 43 -34 56 -43 13 -9 36
-29 51 -45 16 -15 33 -27 39 -27 6 0 11 -4 11 -10 0 -5 5 -10 10 -10 6 0 22
-12 35 -26 14 -15 25 -23 25 -19 0 4 14 -6 30 -24 17 -17 36 -31 43 -31 18 0
203 188 277 280 14 18 33 40 43 51 9 10 17 24 17 29 0 6 4 10 8 10 4 0 16 15
27 33 10 17 26 40 35 50 9 9 23 30 31 45 8 15 20 33 27 40 6 7 12 20 12 28 0
8 4 14 8 14 5 0 17 17 28 37 10 21 22 40 25 43 4 3 9 15 13 28 4 12 12 20 17
17 5 -3 6 1 3 9 -4 10 -1 16 7 16 7 0 9 3 6 6 -4 4 3 20 14 35 11 16 18 29 15
29 -3 0 3 17 14 37 11 21 20 43 20 50 0 7 5 13 12 13 6 0 8 3 5 7 -4 3 -2 12
4 20 6 7 8 13 5 13 -4 0 0 12 8 27 9 16 27 64 41 108 14 44 29 87 32 95 3 8 8
26 10 40 2 13 7 27 11 30 4 3 8 14 10 25 2 18 10 58 17 95 2 8 4 15 5 15 2 0
6 19 14 60 13 72 18 102 20 132 2 17 7 36 10 42 4 6 1 11 -6 11 -8 0 -9 3 -3
8 6 4 12 27 14 52 8 80 6 423 -3 500 -5 41 -10 91 -11 110 -2 19 -4 35 -5 35
-2 0 -6 19 -14 65 -4 19 -9 42 -11 50 -2 8 -6 26 -9 40 -13 64 -40 168 -53
200 -3 8 -7 20 -9 27 -6 31 -28 89 -37 101 -5 6 -6 12 -2 12 4 0 2 7 -5 15 -7
8 -10 15 -6 15 4 0 0 13 -8 29 -9 16 -12 32 -8 36 4 5 2 5 -4 2 -7 -4 -16 10
-24 38 -7 25 -17 45 -21 45 -5 0 -8 3 -7 8 3 10 -44 106 -56 114 -6 4 -7 8 -3
8 5 0 0 12 -11 28 -11 15 -27 44 -37 65 -9 20 -21 37 -26 37 -5 0 -9 5 -9 11
0 6 -13 30 -30 54 -16 24 -30 49 -30 55 0 6 -4 8 -10 5 -5 -3 -10 0 -10 7 0 7
-11 26 -25 42 -14 16 -25 32 -25 35 0 3 -10 17 -23 31 -12 14 -42 49 -66 78
-24 29 -68 79 -97 110 -30 31 -54 60 -54 64 0 5 -5 8 -10 8 -6 0 -23 13 -39
29 l-28 28 -21 -24z m132 -1243 c20 -6 36 -16 36 -21 0 -5 5 -9 11 -9 7 0 18
-8 25 -17 14 -19 88 -144 89 -153 1 -3 10 -23 20 -45 31 -69 34 -78 50 -139 8
-32 12 -63 9 -67 -3 -5 -1 -9 4 -9 10 0 15 -50 15 -185 0 -107 -3 -142 -17
-164 -7 -10 -6 -12 4 -6 9 5 11 4 6 -3 -4 -7 -9 -20 -11 -30 -1 -9 -9 -37 -16
-62 -7 -25 -14 -49 -14 -55 -2 -19 -77 -170 -86 -173 -5 -2 -7 -8 -3 -13 3 -5
-2 -12 -10 -15 -9 -3 -16 -10 -16 -16 0 -12 -45 -57 -62 -60 -7 -2 -16 -7 -20
-12 -10 -15 -110 -15 -145 -1 -18 8 -33 12 -33 10 0 -18 -81 88 -88 115 -15
61 -3 137 27 174 7 9 11 16 7 16 -3 0 2 9 11 20 9 10 18 27 19 37 2 10 7 19
13 21 5 2 7 10 4 18 -3 8 1 14 8 14 7 0 10 3 7 6 -3 3 0 26 6 52 17 63 20 186
6 247 -7 28 -13 57 -15 65 -7 33 -56 130 -82 161 -16 18 -23 30 -16 26 7 -5 6
5 -4 24 -17 35 -20 112 -4 117 6 2 9 8 6 13 -11 17 44 87 87 110 53 29 105 32
172 9z"/>
</g>
</svg>
