<?xml version="1.0" standalone="no"?>
<!DOCTYPE svg PUBLIC "-//W3C//DTD SVG 20010904//EN"
 "http://www.w3.org/TR/2001/REC-SVG-20010904/DTD/svg10.dtd">
<svg version="1.0" xmlns="http://www.w3.org/2000/svg"
 width="700.000000pt" height="700.000000pt" viewBox="0 0 700.000000 700.000000"
 preserveAspectRatio="xMidYMid meet">
<metadata>
Created by potrace 1.14, written by Peter Selinger 2001-2017
</metadata>
<g transform="translate(0.000000,700.000000) scale(0.100000,-0.100000)"
fill="#000000" stroke="none">
<path d="M740 5861 l0 -1139 638 1 637 2 3 535 2 536 988 -1 c889 -1 996 -3
1075 -19 378 -73 690 -336 820 -691 29 -78 43 -130 53 -189 3 -21 8 -48 10
-60 6 -27 6 -224 1 -251 -3 -11 -8 -45 -12 -75 -11 -80 -61 -223 -112 -320
-155 -293 -443 -503 -768 -560 -89 -16 -184 -18 -875 -19 -426 0 -800 -3 -830
-6 -538 -54 -1021 -337 -1314 -770 -71 -106 -75 -112 -125 -213 -68 -135 -124
-291 -145 -402 -2 -14 -9 -47 -15 -75 -6 -27 -13 -66 -17 -85 -4 -19 -9 -491
-11 -1048 l-4 -1012 640 0 641 0 0 893 c1 490 3 910 6 932 37 280 259 505 544
551 25 4 396 8 825 9 429 1 791 5 805 8 14 4 41 8 60 11 109 14 142 20 215 38
81 19 112 27 130 32 6 2 24 6 40 11 17 4 81 27 142 51 298 114 551 275 784
499 37 35 99 101 138 147 79 91 76 88 111 138 14 19 27 37 30 40 22 22 131
202 175 291 114 225 211 545 230 759 3 36 8 75 11 88 6 28 6 349 0 382 -2 14
-7 54 -11 90 -34 361 -202 782 -435 1095 -335 448 -813 759 -1350 879 -252 56
-196 54 -2032 55 l-1698 1 0 -1139z"/>
</g>
</svg>
