<?xml version="1.0" standalone="no"?>
<!DOCTYPE svg PUBLIC "-//W3C//DTD SVG 20010904//EN"
 "http://www.w3.org/TR/2001/REC-SVG-20010904/DTD/svg10.dtd">
<svg version="1.0" xmlns="http://www.w3.org/2000/svg"
 width="700.000000pt" height="700.000000pt" viewBox="0 0 700.000000 700.000000"
 preserveAspectRatio="xMidYMid meet">
<g transform="translate(0.000000,700.000000) scale(0.100000,-0.100000)"
fill="#000000" stroke="none">
<path d="M571 6640 c-263 -56 -480 -264 -552 -530 -14 -50 -17 -94 -15 -190 3
-130 5 -141 32 -224 19 -59 49 -116 219 -416 114 -200 207 -366 240 -425 15
-27 57 -102 93 -165 36 -63 76 -135 90 -160 13 -25 32 -58 42 -75 10 -16 29
-50 42 -75 14 -25 76 -135 138 -245 62 -110 124 -220 138 -245 13 -25 32 -58
42 -75 10 -16 29 -50 42 -75 35 -63 145 -258 203 -360 26 -47 58 -103 70 -125
22 -41 492 -878 570 -1015 52 -92 123 -219 157 -280 14 -25 98 -175 188 -335
90 -159 177 -315 193 -345 17 -30 49 -86 72 -125 82 -135 215 -374 215 -384 0
-6 5 -11 10 -11 6 0 10 -5 10 -11 0 -20 87 -143 137 -193 55 -55 154 -123 228
-153 222 -94 497 -63 701 78 90 62 157 145 339 419 100 151 235 356 301 455
65 99 121 184 124 190 3 5 113 172 244 370 248 374 480 725 660 1000 58 88
110 167 116 175 15 22 394 596 528 800 63 96 126 192 141 214 14 21 31 46 36
55 6 9 67 102 136 206 324 489 379 574 414 638 20 37 34 67 31 67 -4 0 0 12 8
28 8 15 17 44 20 66 4 21 9 43 12 48 10 16 6 202 -5 253 -59 258 -240 458
-487 539 -73 24 -95 28 -259 46 -49 6 -115 13 -145 16 -30 4 -68 8 -85 9 -32
3 -128 13 -185 21 -19 2 -60 7 -90 10 -30 3 -71 7 -90 10 -19 2 -62 7 -95 10
-33 3 -71 7 -85 9 -14 2 -52 7 -85 10 -71 8 -125 14 -180 20 -49 6 -128 15
-175 20 -19 2 -66 6 -105 10 -38 3 -77 8 -85 10 -8 2 -49 7 -90 10 -41 3 -82
8 -90 10 -8 2 -44 6 -80 10 -36 3 -75 7 -85 9 -11 2 -56 7 -100 10 -44 4 -87
9 -95 11 -8 2 -45 6 -82 10 -37 3 -77 8 -90 10 -13 2 -52 6 -88 10 -56 5 -254
26 -370 40 -19 2 -66 7 -105 11 -38 4 -77 8 -85 9 -8 2 -44 6 -80 10 -36 3
-78 8 -95 10 -44 5 -135 16 -175 20 -46 5 -135 14 -187 20 -24 3 -63 7 -88 10
-25 3 -65 7 -90 10 -25 3 -66 7 -92 10 -27 3 -66 7 -88 10 -22 3 -67 7 -100
10 -33 4 -76 8 -95 10 -79 10 -223 26 -350 40 -63 7 -151 17 -220 25 -41 5
-102 12 -135 15 -59 6 -79 8 -180 20 -27 3 -70 8 -95 10 -25 2 -63 7 -85 9
-22 3 -65 8 -95 11 -30 3 -66 8 -80 10 -14 2 -61 6 -105 10 -44 4 -89 9 -100
12 -42 9 -322 12 -364 3z"/>
</g>
</svg>
