<svg width="16" height="16" xmlns="http://www.w3.org/2000/svg">
  <style>
    path {
      fill: #000000;
    }

    @media (prefers-color-scheme: dark) {
      path {
        fill: #ffffff;
      }
    }
  </style>
  <path
    d="M8.093 2.005l3.645.428a.715.715 0 01.497.286l2.647 3.618a.602.602 0 01-.022.745l-6.426 7.714a.564.564 0 01-.868 0L1.14 7.082a.602.602 0 01-.022-.745L3.765 2.72c.12-.162.3-.265.497-.286l3.66-.43a.808.808 0 01.17.002zm.873 1c-.081-.08-.193.031-.128.115l1.865 2.542c.104.137.01.35-.17.35H5.48c-.18 0-.275-.213-.17-.35L7.173 3.12c.065-.084-.047-.196-.128-.115L4.474 5.777c-.124.132-.357.042-.354-.147l-.017-1.838c-.001-.106-.142-.12-.166-.015l-.426 2.17a.405.405 0 01-.306.299l-1.262.36c-.1.025-.085.173.015.174h1.236a.46.46 0 01.391.232l.006.01 3.24 5.807c.066.117.25.027.19-.1L4.49 7.215c-.097-.204.055-.437.266-.437h6.5c.211 0 .363.233.266.437L8.99 12.728c-.06.128.125.218.192.101l3.24-5.806.005-.01a.46.46 0 01.39-.233h1.237c.1 0 .115-.15.016-.173l-1.263-.361a.405.405 0 01-.306-.299l-.426-2.17c-.025-.107-.171-.09-.166.023l-.017 1.83c.003.189-.23.279-.353.147z"
    fill-opacity=".85" fill="#000" fill-rule="evenodd" />
</svg>
