<svg xmlns="http://www.w3.org/2000/svg" viewBox="0 0 1024 1024">
  <path fill="#000000" d="m125.1 189.5-56.2-49.3 1.8-2.4c49-56.4 107-102.4 172.9-136.3l2.7-1.5 34.2 66.3-2.7 1.5c-41.1 21.5-78.6 47.8-112.1 79-13.6 12.7-26.6 26-38.7 40l-2.1 2.4.3.3Zm774.4 0h-.1c0-.1 55.7-49.1 55.7-49.1l-1.8-2.4c-30.8-35.4-65.6-66.9-103.4-93.9-22.1-15.7-45.3-30-69.5-42.4L777.7.2l-34.2 66.3 2.7 1.5c23 11.8 45 25.4 65.6 40.6l14.5 10.9c25.7 20 49.6 42.7 71 67.5l2 2.3-.5.4.6-.3ZM515.6 606.4 332.7 436.2l51.4-55.4 128.8 119.6 178.3-185 54.1 52.7-229.7 238.3Z"/>
  <path fill="#000000" d="M77.1 523.2c0 240.1 194.9 435.1 434.3 435.1s434.3-195 434.3-435.1S751.1 88.1 511.4 88.1 77.1 283.1 77.1 523.2Zm75.6.3c0-198.3 161.1-359.4 358.8-359.4s358.8 161.1 358.8 359.4-160.8 359.4-358.8 359.4-358.8-161.1-358.8-359.4Z"/>
</svg>
