<?xml version="1.0" standalone="no"?>
<!DOCTYPE svg PUBLIC "-//W3C//DTD SVG 20010904//EN"
 "http://www.w3.org/TR/2001/REC-SVG-20010904/DTD/svg10.dtd">
<svg version="1.0" xmlns="http://www.w3.org/2000/svg"
 width="700.000000pt" height="700.000000pt" viewBox="0 0 700.000000 700.000000"
 preserveAspectRatio="xMidYMid meet">
<metadata>
Created by potrace 1.14, written by Peter Selinger 2001-2017
</metadata>
<g transform="translate(0.000000,700.000000) scale(0.100000,-0.100000)"
fill="#000000" stroke="none">
<path d="M3527 6534 c-1 -1 -51 -4 -112 -8 -60 -3 -119 -8 -130 -10 -11 -2
-41 -6 -66 -10 -251 -37 -518 -124 -759 -249 -124 -64 -352 -217 -460 -307
-435 -365 -760 -842 -980 -1436 -44 -118 -116 -353 -136 -444 -10 -45 -9 -40
-17 -75 -16 -65 -45 -234 -53 -301 -3 -27 -7 -60 -9 -74 -3 -14 -7 -61 -11
-105 -3 -44 -7 -100 -10 -125 -9 -102 -3 -567 11 -785 14 -224 30 -434 41
-524 3 -24 7 -64 9 -90 3 -25 9 -80 14 -121 6 -41 12 -95 16 -120 3 -25 7 -54
9 -65 2 -11 7 -45 10 -76 4 -31 8 -65 10 -75 12 -65 16 -94 21 -129 3 -22 10
-62 15 -90 5 -27 11 -61 14 -75 28 -172 121 -573 168 -727 l10 -33 56 43 c102
78 383 235 557 312 258 114 619 227 985 310 8 2 47 10 85 19 441 96 855 204
1101 285 849 281 1402 641 1822 1186 5 6 31 44 58 85 144 216 263 481 330 735
4 17 8 32 9 35 8 25 41 209 49 280 10 79 19 223 19 310 0 90 -11 265 -18 290
-2 8 -6 35 -9 60 -20 155 -79 372 -142 523 -132 313 -293 555 -524 788 -350
351 -747 574 -1252 703 -129 33 -222 52 -313 62 -22 3 -51 7 -65 9 -49 9 -346
25 -353 19z"/>
</g>
</svg>
