<svg width="16" height="16" viewBox="0 0 16 16" xmlns="http://www.w3.org/2000/svg"><path d="M8.505 1.06a.46.46 0 0 0 .002.184c.063.334.088 1.412.041 1.768a5.61 5.61 0 0 1-.063.424c-.008.038-.021.099-.027.137-.055.29-.21.739-.37 1.051-.448.89-1.19 1.541-2.211 1.946l-.257.101-.05-.063c-.238-.309-.492-1.097-.558-1.735-.033-.323-.047-.383-.085-.424-.033-.033-.055-.03-.161.022a1.072 1.072 0 0 0-.16.087c-.018.014-.155.118-.306.23-1.127.835-1.992 2.21-2.25 3.575-.07.383-.065 1.223.009 1.724.04.266.221.988.282 1.136l.06.15c.063.181.356.77.468.953.24.386.47.674.802 1.005a5.379 5.379 0 0 0 1.341.985c.31.173.914.392 1.388.507.391.093.446.1 1.007.161.213.025 1.311.02 1.412-.005.033-.009.124-.022.206-.033.082-.011.235-.036.339-.06.107-.022.222-.047.26-.053.457-.084 1.27-.424 1.766-.736.574-.361 1.163-.884 1.519-1.352l.123-.161c.509-.663.955-1.73 1.07-2.565l.025-.178c.046-.28.057-.805.027-1.308-.022-.37-.027-.411-.14-1.087a11.093 11.093 0 0 0-.284-1.037c-.156-.441-.41-1-.616-1.353-.156-.262-.203-.342-.298-.484a.867.867 0 0 0-.132-.172.046.046 0 0 1-.022-.039c0-.03-.183-.274-.451-.596a10.414 10.414 0 0 0-2.628-2.237C9.175 1.285 8.63 1 8.568 1c-.022 0-.05.027-.063.06z" fill="#000" fill-rule="nonzero"/></svg>
